<?xml version="1.0" standalone="no"?>
<!DOCTYPE svg PUBLIC "-//W3C//DTD SVG 20010904//EN"
 "http://www.w3.org/TR/2001/REC-SVG-20010904/DTD/svg10.dtd">
<svg version="1.0" xmlns="http://www.w3.org/2000/svg"
 width="260.000000pt" height="260.000000pt" viewBox="0 0 260.000000 260.000000"
 preserveAspectRatio="xMidYMid meet">
<metadata>
Created by potrace 1.14, written by Peter Selinger 2001-2017
</metadata>
<g transform="translate(0.000000,260.000000) scale(0.100000,-0.100000)"
fill="#000000" stroke="none">
<path d="M1536 1968 c-11 -15 -12 -26 -6 -32 16 -16 12 -26 -7 -19 -15 6 -16
5 -3 -9 8 -9 17 -15 20 -13 3 2 5 -7 5 -20 0 -13 -2 -22 -5 -20 -3 2 -10 -8
-17 -21 -6 -13 -7 -21 -2 -18 6 3 8 -6 5 -20 -3 -15 -1 -24 5 -21 5 4 7 10 4
15 -3 5 -1 12 5 15 6 4 9 1 8 -7 -2 -7 3 -12 10 -10 6 1 12 -3 12 -8 0 -13 70
-10 88 4 11 7 13 6 10 -8 -3 -20 27 -32 38 -15 3 5 10 7 15 4 5 -4 14 6 20 22
14 37 19 94 8 87 -5 -3 -9 0 -9 5 0 6 7 11 16 11 8 0 12 5 9 10 -4 6 -12 7
-18 3 -7 -3 -3 4 8 17 17 20 18 23 3 17 -10 -4 -18 -2 -18 3 0 6 6 10 13 10 8
0 7 4 -3 10 -11 7 -11 10 -2 10 7 0 10 5 7 10 -3 6 -50 10 -105 10 -91 0 -100
-2 -114 -22z m194 -189 c0 -5 -3 -8 -7 -8 -5 1 -10 0 -13 -1 -3 -1 -13 -3 -23
-5 -13 -2 -15 0 -8 9 12 14 51 19 51 5z"/>
<path d="M1960 1807 c0 -5 4 -16 9 -26 7 -13 6 -18 -4 -18 -8 0 -12 4 -9 9 3
5 -6 7 -20 4 -13 -2 -27 1 -31 7 -3 7 -3 2 -1 -10 2 -13 -1 -26 -6 -30 -6 -3
-8 -1 -4 5 3 6 2 13 -4 17 -6 4 -7 11 -4 17 4 6 2 8 -4 5 -5 -4 -9 -15 -8 -25
2 -9 0 -29 -5 -44 -6 -22 -4 -26 9 -22 16 5 16 5 0 -8 -15 -13 -15 -15 0 -26
9 -7 11 -10 5 -7 -12 6 -18 -9 -13 -30 2 -5 2 -18 2 -27 0 -9 8 -20 19 -23 10
-4 19 -11 19 -16 0 -5 5 -9 11 -9 5 0 8 4 5 9 -4 5 8 7 25 4 24 -3 29 -2 23 9
-6 10 -5 11 8 1 8 -7 19 -9 23 -5 5 4 5 -2 2 -13 -7 -20 -7 -20 8 -1 10 13 15
15 15 6 0 -10 5 -9 18 3 15 14 19 15 19 2 0 -8 -5 -11 -10 -8 -6 3 -7 1 -3 -5
4 -6 13 -9 21 -6 8 4 13 9 11 13 -3 4 11 7 30 7 19 0 34 -5 34 -11 0 -5 5 -3
11 5 9 12 10 10 6 -8 -4 -17 -2 -21 7 -13 7 6 17 6 26 1 11 -7 12 -10 2 -10
-8 0 -10 -5 -6 -12 5 -8 1 -9 -12 -5 -18 7 -18 7 0 -8 11 -8 15 -15 8 -15 -6
0 -11 -11 -10 -24 1 -14 6 -22 12 -19 5 3 6 1 2 -5 -3 -5 0 -13 6 -16 7 -3 2
-3 -12 0 -24 6 -24 5 -8 -12 16 -16 16 -18 0 -31 -9 -8 -11 -11 -4 -8 11 6 13
-3 9 -44 -3 -34 -1 -49 6 -44 5 3 7 1 3 -5 -3 -5 0 -13 6 -16 7 -3 2 -3 -12 0
-24 6 -24 5 -8 -12 16 -16 16 -18 0 -31 -9 -8 -11 -12 -4 -8 9 5 12 -5 11 -37
0 -24 2 -53 5 -65 3 -13 1 -23 -4 -23 -6 0 -9 -11 -8 -24 1 -14 6 -22 12 -19
5 3 6 1 2 -5 -3 -5 0 -13 6 -16 7 -3 2 -3 -12 0 -24 6 -24 5 -8 -12 16 -16 16
-18 0 -31 -9 -8 -11 -12 -4 -8 9 5 12 -5 11 -37 0 -24 2 -53 5 -65 3 -13 1
-23 -4 -23 -6 0 -9 -11 -8 -24 1 -14 5 -23 8 -21 3 2 6 -11 6 -27 l1 -31 -14
24 c-10 16 -12 18 -7 4 4 -11 8 -31 9 -45 2 -16 8 -24 16 -22 38 10 46 9 46
-4 0 -9 -4 -10 -11 -5 -7 6 -17 5 -27 -2 -13 -10 -2 -12 53 -12 37 -1 68 3 68
8 0 4 -4 6 -9 3 -5 -3 -12 1 -15 9 -4 12 -2 13 13 6 12 -7 22 -6 31 2 10 10
10 8 2 -9 -10 -19 -8 -20 21 -19 20 2 31 7 29 15 -2 8 3 10 14 6 15 -6 15 -4
3 11 -12 15 -12 16 4 10 12 -4 16 -3 11 4 -4 6 -1 15 6 19 8 5 7 9 -5 13 -10
5 -14 3 -9 -5 4 -7 3 -8 -5 -4 -6 4 -9 12 -5 17 3 5 9 7 14 4 5 -3 12 -1 15 5
4 6 3 9 -2 8 -8 -3 -13 5 -13 23 0 5 5 7 12 3 7 -4 8 -3 4 5 -4 6 -12 9 -17 6
-16 -10 -10 13 9 31 16 17 16 18 0 11 -21 -7 -21 -7 -8 27 6 16 6 27 0 31 -17
10 -11 25 8 19 13 -5 14 -4 3 4 -8 6 -11 17 -8 27 4 9 3 14 -3 10 -17 -10 -11
12 8 31 16 17 16 18 0 11 -21 -7 -21 -7 -8 27 6 17 6 27 -2 32 -7 4 -8 3 -4
-4 4 -7 2 -12 -4 -12 -7 0 -9 7 -6 16 3 9 6 17 6 20 0 2 8 1 18 -2 13 -5 14
-4 3 4 -8 6 -11 17 -8 27 4 9 3 14 -3 10 -17 -10 -11 12 8 31 16 17 16 18 0
11 -21 -7 -21 -7 -8 27 6 16 6 27 0 31 -17 10 -11 25 8 19 13 -5 14 -4 3 4 -8
6 -11 17 -8 27 4 9 3 14 -3 10 -17 -10 -11 12 8 31 16 17 16 18 0 11 -21 -7
-21 -7 -8 27 6 17 6 27 -2 32 -7 4 -8 3 -4 -4 4 -7 3 -12 -2 -12 -6 0 -9 11
-8 24 1 18 4 22 14 14 7 -6 15 -8 19 -4 3 3 1 6 -5 6 -7 0 -12 7 -12 16 0 9 5
12 12 8 7 -4 8 -3 4 5 -4 6 -12 9 -17 6 -16 -10 -10 13 9 31 16 17 16 18 -2
11 -14 -6 -17 -4 -12 9 3 8 6 20 6 25 0 5 6 9 14 9 8 0 17 6 19 13 4 9 6 8 6
-2 1 -11 4 -11 16 -1 12 10 15 10 15 0 0 -8 4 -9 13 -3 14 11 57 11 74 0 9 -5
12 22 12 108 0 113 -8 140 -32 116 -9 -9 -7 -11 8 -6 16 5 17 5 5 -3 -17 -13
-30 -6 -30 16 0 14 -2 15 -9 2 -6 -8 -8 -17 -6 -21 3 -3 -7 -4 -20 -1 -15 2
-22 9 -18 16 4 6 -1 5 -10 -3 -12 -9 -17 -10 -17 -2 0 7 -5 9 -10 6 -6 -4 -7
-11 -4 -17 4 -6 2 -8 -4 -4 -6 3 -9 16 -7 27 3 17 2 19 -10 9 -8 -6 -11 -19
-8 -28 3 -10 -3 -7 -16 8 -12 14 -19 18 -15 9 3 -10 0 -20 -6 -24 -6 -3 -9 -1
-8 6 2 7 -8 13 -22 13 -14 1 -32 5 -40 10 -13 8 -13 7 -2 -6 10 -13 10 -17 -3
-21 -8 -4 -14 -1 -12 5 1 6 -12 12 -30 13 -18 1 -30 -2 -28 -6 3 -4 -4 -9 -16
-12 -17 -5 -18 -3 -8 9 10 13 8 14 -16 10 -15 -3 -30 -8 -33 -11 -3 -3 -14 2
-24 12 -10 9 -21 13 -25 10 -3 -4 -1 -7 6 -7 7 0 9 -5 5 -12 -5 -7 -3 -8 6 -3
9 5 11 4 6 -4 -5 -8 -13 -7 -28 3 -18 13 -24 13 -47 -2 -25 -16 -25 -16 -12 1
13 16 12 18 -10 13 -13 -2 -33 -8 -43 -12 -15 -6 -17 -4 -11 6 5 8 4 11 -3 6
-6 -3 -15 2 -21 11 -6 10 -11 14 -11 10z m465 -575 c-3 -3 -11 0 -18 7 -9 10
-8 11 6 5 10 -3 15 -9 12 -12z m0 -320 c-3 -3 -11 0 -18 7 -9 10 -8 11 6 5 10
-3 15 -9 12 -12z m-224 -195 c-10 -9 -11 -8 -5 6 3 10 9 15 12 12 3 -3 0 -11
-7 -18z m189 -1 c0 -2 -8 -10 -17 -17 -16 -13 -17 -12 -4 4 13 16 21 21 21 13z
m-96 -15 c4 -5 -3 -7 -14 -4 -23 6 -26 13 -6 13 8 0 17 -4 20 -9z"/>
<path d="M78 1788 c10 -13 10 -17 -3 -21 -8 -4 -14 -1 -12 5 1 6 -8 11 -20 13
-12 1 -20 -2 -17 -7 3 -4 1 -8 -5 -8 -5 0 -12 6 -14 13 -3 6 -6 -41 -6 -105
-1 -76 3 -119 10 -124 6 -3 15 -1 19 6 5 9 9 9 14 1 4 -6 11 -9 15 -7 10 7 7
-26 -4 -43 -5 -10 -4 -12 3 -7 16 10 15 -7 0 -23 -7 -8 -8 -11 -2 -8 7 4 11
-7 10 -33 0 -22 -5 -40 -11 -40 -5 0 -4 -4 4 -9 12 -8 13 -16 4 -46 -10 -32
-10 -36 4 -31 13 5 14 4 3 -9 -7 -8 -9 -15 -5 -15 4 0 1 -8 -6 -17 -10 -11
-10 -14 -1 -9 16 9 16 -6 -1 -23 -6 -8 -7 -11 -1 -8 7 4 11 -7 10 -33 0 -22
-5 -40 -11 -40 -5 0 -4 -4 4 -9 12 -8 13 -16 4 -46 -10 -32 -10 -36 4 -31 13
5 14 4 3 -9 -7 -8 -9 -15 -5 -15 4 0 1 -8 -6 -17 -10 -11 -10 -14 -1 -9 16 9
16 -6 -1 -23 -10 -11 -9 -13 1 -7 8 5 11 1 9 -13 -2 -11 -6 -24 -10 -27 -4 -4
-7 -12 -7 -18 0 -6 5 -4 10 4 5 8 10 11 10 5 0 -14 -16 -37 -25 -37 -4 0 -12
6 -16 14 -7 10 -9 10 -9 0 0 -7 -4 -10 -10 -7 -11 7 -14 -173 -4 -211 5 -18
13 -20 105 -20 54 0 99 3 99 7 0 3 -16 5 -35 4 -19 -1 -35 3 -35 8 0 5 9 7 20
4 11 -3 23 -1 26 4 4 6 11 6 19 -1 9 -8 15 -8 20 0 3 5 11 10 16 10 6 0 3 -7
-5 -16 -9 -8 -16 -16 -16 -17 0 -1 52 -2 115 -3 63 0 115 3 115 6 0 4 -16 6
-35 5 -19 -1 -35 3 -35 7 0 5 8 8 18 6 9 -1 22 1 29 5 6 4 14 3 18 -3 4 -6 12
-7 24 -1 13 7 18 6 18 -4 0 -8 -4 -12 -8 -9 -4 2 -10 1 -13 -4 -2 -4 13 -8 33
-7 27 0 37 4 34 13 -4 9 -9 10 -19 1 -10 -8 -14 -8 -14 0 0 6 5 12 10 12 6 1
16 2 23 3 6 1 18 -2 25 -7 8 -7 12 -5 12 6 0 11 6 14 15 11 9 -4 12 -11 8 -18
-5 -7 -1 -4 9 6 18 20 43 25 32 6 -4 -8 -3 -10 2 -5 5 5 9 14 9 19 0 6 6 13
14 16 9 3 11 0 6 -8 -5 -9 -4 -11 3 -6 7 4 12 15 12 24 0 15 2 15 10 2 6 -10
10 -11 10 -2 0 6 7 12 16 12 9 0 12 5 8 12 -5 8 -2 9 11 4 16 -6 16 -4 4 11
-8 9 -9 14 -3 10 7 -4 14 0 18 8 3 8 13 15 23 15 15 0 16 2 3 10 -12 8 -10 10
10 10 20 0 22 2 10 10 -10 7 -12 12 -4 18 6 4 11 14 11 22 1 8 8 32 17 52 15
35 15 37 -1 31 -16 -6 -15 -3 2 17 11 13 15 20 8 17 -15 -9 -24 6 -25 43 -1
17 -6 30 -12 30 -6 0 -4 5 4 10 13 8 12 10 -3 10 -14 0 -16 4 -8 19 9 15 7 18
-7 17 -10 0 -16 5 -14 13 2 8 -3 11 -12 8 -10 -4 -13 -1 -9 9 3 8 2 14 -3 13
-25 -4 -36 2 -30 19 5 14 4 14 -9 -2 -15 -20 -15 -20 -16 0 -1 10 -1 23 0 27
1 5 -3 6 -8 2 -6 -3 -8 -13 -5 -23 4 -12 2 -12 -7 3 -19 28 -19 43 -2 49 7 3
12 2 9 -2 -2 -4 5 -9 17 -9 17 -2 19 0 7 7 -13 8 -13 11 -1 22 10 10 12 10 7
1 -4 -7 -3 -13 3 -13 6 0 15 9 21 20 6 11 16 19 23 17 7 -1 11 6 11 15 -1 10
1 17 5 16 18 -2 31 3 31 13 0 5 -6 7 -12 4 -7 -4 -5 0 5 8 14 11 15 16 5 20
-9 4 -7 6 4 6 9 1 20 6 24 13 4 7 3 8 -4 4 -14 -9 -16 6 -2 20 6 6 4 20 -5 38
-12 23 -12 26 -1 17 11 -9 15 -8 19 4 4 8 1 14 -6 12 -7 -1 -10 5 -9 13 10 42
10 50 1 45 -5 -4 -6 -11 -3 -17 4 -6 2 -8 -3 -5 -6 4 -8 18 -5 32 3 17 0 25
-9 25 -11 0 -11 2 1 10 11 7 11 10 2 10 -7 0 -10 5 -6 12 4 7 3 8 -5 4 -11 -7
-33 32 -24 46 2 4 -4 5 -13 1 -13 -5 -15 -3 -9 8 7 11 5 11 -10 -1 -11 -9 -16
-10 -11 -2 4 6 2 12 -3 12 -6 0 -11 5 -11 11 0 5 5 7 12 3 6 -4 8 -3 5 4 -4 5
-17 8 -29 4 -14 -3 -19 -2 -14 6 5 8 -2 12 -19 12 -15 0 -24 4 -20 10 3 6 -3
10 -14 10 -12 0 -21 -6 -21 -12 0 -7 -5 -5 -11 5 -6 9 -15 14 -21 11 -8 -5 -9
-1 -5 12 7 18 7 18 -8 0 -9 -12 -15 -15 -15 -7 0 7 -6 11 -12 8 -20 -7 -60 11
-52 24 4 8 3 9 -5 5 -6 -4 -9 -12 -6 -17 3 -5 -2 -6 -11 -2 -13 5 -15 3 -9 -8
6 -11 5 -12 -6 -1 -7 6 -17 12 -22 12 -4 0 -5 -6 -2 -12 4 -7 -1 -4 -9 6 -9
11 -16 15 -16 9 0 -6 -7 -14 -16 -17 -14 -6 -15 -4 -4 9 12 14 10 15 -13 11
-15 -2 -31 -7 -36 -11 -5 -3 -14 3 -20 12 -6 10 -11 13 -11 6 0 -7 -7 -10 -17
-7 -15 5 -15 4 -3 -4 8 -6 18 -8 24 -5 5 3 6 1 3 -4 -4 -6 -18 -8 -32 -6 -15
3 -22 10 -18 17 4 6 -1 5 -10 -3 -12 -9 -17 -10 -17 -2 0 7 -5 9 -10 6 -6 -4
-7 -12 -4 -18 4 -7 3 -8 -2 -4 -5 5 -9 13 -9 18 0 5 -4 8 -10 7 -5 -2 -9 -10
-7 -18 2 -8 -6 -4 -18 10 -11 14 -18 18 -14 9 3 -10 0 -20 -6 -24 -6 -3 -9 -1
-8 6 2 7 -8 13 -22 13 -14 1 -32 5 -40 10 -13 8 -13 7 -2 -6z m257 -228 c-3
-5 -1 -10 4 -10 6 0 11 5 11 11 0 8 6 7 17 -2 9 -8 14 -9 11 -3 -4 6 3 10 18
10 13 0 24 -4 24 -9 0 -5 8 -3 17 4 11 10 14 10 9 2 -4 -7 -2 -13 3 -13 6 0
11 5 11 12 0 6 6 3 14 -8 14 -18 15 -18 21 -1 7 17 8 17 21 0 11 -14 13 -14 9
-2 -4 10 0 16 10 16 8 0 15 -6 15 -14 0 -7 5 -13 11 -13 5 0 7 6 3 13 -6 9 -4
9 6 0 16 -14 24 -76 9 -68 -5 4 -9 -1 -9 -10 0 -10 5 -13 13 -9 8 5 7 2 -2 -9
-12 -16 -12 -17 5 -11 12 3 14 3 7 -3 -6 -4 -10 -24 -9 -45 2 -25 -1 -35 -10
-31 -18 7 -29 -18 -13 -28 9 -6 10 -9 2 -9 -6 0 -15 5 -18 10 -4 6 -12 7 -18
3 -18 -11 -38 -12 -31 -2 3 5 -2 9 -11 9 -10 0 -13 -5 -9 -12 6 -10 4 -10 -8
0 -12 9 -18 10 -23 2 -5 -9 -10 -9 -18 -1 -13 13 -31 15 -23 3 3 -5 -1 -9 -9
-9 -8 0 -12 4 -9 9 3 4 0 8 -6 8 -6 0 -8 6 -4 13 4 7 3 9 -2 4 -5 -5 -10 -13
-10 -18 -1 -5 -2 -11 -3 -14 0 -3 -11 3 -23 15 -12 11 -27 20 -33 20 -6 0 -11
18 -11 39 0 26 4 38 10 34 6 -4 5 1 -3 10 -10 12 -10 17 -1 17 6 0 10 6 7 13
-2 6 -11 11 -18 9 -8 -2 -4 7 8 20 19 19 20 27 10 38 -8 9 -8 11 0 6 6 -3 14
-2 18 4 3 5 8 10 11 10 3 0 2 -4 -1 -10z m-10 -210 c3 -5 2 -10 -4 -10 -5 0
-13 5 -16 10 -3 6 -2 10 4 10 5 0 13 -4 16 -10z m102 -215 c0 -6 -11 -11 -23
-11 -16 0 -20 3 -14 11 5 7 16 12 23 12 8 0 14 -5 14 -12z m66 -29 c-4 -6 3
-3 15 8 12 10 18 24 15 30 -4 6 6 1 21 -12 16 -12 31 -20 35 -18 3 2 7 -25 7
-61 1 -36 -2 -60 -6 -53 -5 8 -9 5 -12 -8 -4 -15 -2 -19 8 -15 12 4 12 0 4
-22 -13 -34 -13 -38 2 -29 7 4 8 3 4 -5 -4 -6 -13 -8 -19 -4 -17 10 -47 11
-53 1 -3 -4 -10 -8 -15 -8 -6 0 -7 5 -3 11 5 8 1 8 -14 0 -24 -13 -35 -14 -28
-3 2 4 -4 8 -14 8 -10 0 -17 -4 -14 -7 2 -4 -8 -6 -23 -4 -16 2 -28 4 -28 5 0
1 -10 3 -22 4 -13 2 -23 -1 -23 -6 0 -4 -4 -8 -10 -8 -5 0 -10 7 -10 15 0 8
-5 15 -11 15 -8 0 -8 5 1 15 10 12 10 15 -1 15 -11 0 -11 2 1 10 12 8 12 10 1
10 -10 0 -11 3 -2 13 6 8 8 17 4 20 -3 4 -6 20 -5 37 0 21 -3 28 -11 23 -7 -3
-3 3 7 15 11 12 25 22 33 22 7 0 13 4 13 10 0 5 7 7 15 4 8 -4 13 -9 10 -13
-9 -15 66 -5 82 12 16 15 18 15 35 0 10 -8 15 -21 11 -27z m14 22 c-3 -8 -6
-5 -6 6 -1 11 2 17 5 13 3 -3 4 -12 1 -19z m307 -173 c-4 -8 -11 -15 -16 -15
-6 0 -5 6 2 15 7 8 14 15 16 15 2 0 1 -7 -2 -15z m-723 -250 c9 2 22 0 28 -4
7 -4 -13 -7 -44 -7 -30 1 -55 5 -55 10 0 4 9 6 20 3 11 -3 20 0 20 6 0 9 2 9
8 1 4 -6 14 -10 23 -9z m250 0 c34 -7 33 -13 0 -11 -17 0 -33 7 -36 14 -3 7 0
10 5 7 5 -3 20 -8 31 -10z m-45 -7 c3 -4 -1 -5 -10 -4 -8 1 -18 5 -22 8 -3 4
1 5 10 4 8 -1 18 -5 22 -8z"/>
<path d="M560 1510 c-9 -6 -10 -10 -3 -10 6 0 15 5 18 10 8 12 4 12 -15 0z"/>
<path d="M454 1129 c-4 -7 -3 -9 4 -5 5 3 13 0 15 -6 4 -9 6 -10 6 -1 1 17
-16 25 -25 12z"/>
<path d="M550 1106 c0 -2 8 -10 18 -17 15 -13 16 -12 3 4 -13 16 -21 21 -21
13z"/>
<path d="M561 1027 c-13 -21 -12 -21 5 -5 10 10 16 20 13 22 -3 3 -11 -5 -18
-17z"/>
<path d="M1116 1788 c6 -17 -5 -23 -29 -19 -5 1 -6 -3 -2 -9 4 -6 2 -16 -3
-23 -11 -14 -12 -48 -1 -42 3 3 9 -4 12 -15 3 -13 1 -18 -6 -13 -6 4 -8 0 -4
-9 3 -9 3 -19 -1 -22 -14 -15 -9 -40 16 -68 24 -27 27 -28 39 -12 10 14 13 14
13 3 0 -12 2 -12 10 1 9 13 10 13 10 0 0 -13 1 -13 10 0 8 13 10 12 10 -4 0
-20 0 -20 16 0 8 10 13 13 9 7 -3 -7 -1 -13 4 -13 6 0 11 5 11 11 0 8 6 7 17
-2 9 -8 14 -9 10 -3 -3 6 1 11 10 11 9 0 18 -9 21 -19 2 -10 8 -18 12 -18 4 0
11 -7 14 -16 6 -15 4 -15 -11 -3 -9 8 -14 9 -10 3 12 -20 16 -64 5 -64 -6 0
-5 -7 3 -17 8 -10 9 -14 2 -10 -6 4 -15 2 -19 -4 -4 -8 -3 -9 4 -5 7 4 12 2
12 -4 0 -6 6 -8 13 -5 6 4 5 1 -3 -7 -17 -15 -24 -38 -12 -38 5 0 9 -7 9 -15
0 -8 -4 -15 -8 -15 -4 0 -6 -11 -5 -25 0 -14 4 -25 7 -25 3 0 6 -7 6 -15 0 -8
-5 -15 -10 -15 -5 0 -3 -8 4 -17 10 -11 10 -14 2 -9 -7 4 -13 2 -13 -3 0 -6 4
-11 9 -11 5 0 12 -7 15 -16 5 -13 3 -14 -7 -6 -10 8 -13 6 -13 -9 0 -10 3 -19
6 -19 4 0 7 -7 7 -15 0 -8 -5 -15 -10 -15 -5 0 -3 -8 4 -17 12 -14 12 -16 0
-9 -9 6 -12 5 -9 -5 3 -8 12 -13 19 -11 11 2 11 -1 -1 -10 -17 -15 -24 -38
-12 -38 5 0 9 -7 9 -15 0 -8 -4 -15 -9 -15 -5 0 -6 -6 -1 -12 10 -17 12 -59 2
-53 -4 3 -9 -2 -12 -10 -4 -10 -1 -12 11 -8 9 3 14 3 11 -1 -11 -12 -48 -15
-55 -5 -4 6 -11 6 -20 -2 -11 -9 -14 -8 -14 2 0 8 -6 6 -16 -7 -8 -10 -13 -14
-10 -7 8 15 -11 27 -20 12 -4 -8 -9 -7 -15 2 -7 12 -9 12 -9 0 0 -11 -3 -11
-15 -1 -18 15 -38 3 -30 -18 5 -13 1 -12 -17 3 -13 11 -17 13 -10 5 14 -17 16
-34 2 -25 -5 3 -10 2 -10 -4 0 -5 5 -11 10 -13 6 -2 12 -13 15 -26 2 -13 0
-20 -6 -17 -5 4 -6 12 -3 18 4 7 3 8 -1 4 -12 -11 -15 -37 -4 -37 17 0 9 -30
-8 -31 -15 0 -15 -2 2 -8 11 -5 21 -13 21 -20 1 -6 2 -12 3 -13 2 -2 4 -13 7
-26 3 -17 0 -21 -8 -16 -8 4 -10 3 -5 -2 10 -11 636 -13 643 -3 2 4 -1 11 -7
15 -7 4 -10 3 -7 -2 4 -5 -18 -9 -47 -10 -41 0 -52 3 -48 14 3 7 9 10 12 5 7
-9 67 -10 76 -1 4 4 14 4 23 1 11 -5 13 -3 7 7 -6 10 -4 12 11 7 17 -6 17 -6
2 6 -15 12 -15 14 0 25 9 7 11 10 5 7 -9 -4 -12 5 -9 35 2 22 0 38 -5 34 -14
-8 -10 3 7 20 8 9 11 16 5 16 -6 0 -11 12 -11 28 0 21 -2 24 -10 12 -8 -13
-10 -12 -10 5 0 15 -3 16 -12 7 -15 -15 -32 -16 -22 -1 5 8 1 8 -14 0 -24 -13
-35 -14 -28 -3 2 4 -4 8 -14 8 -10 0 -16 -4 -14 -8 3 -4 1 -8 -5 -8 -5 0 -13
5 -17 11 -4 8 -9 7 -15 -2 -8 -12 -10 -12 -18 -1 -4 8 -12 14 -16 14 -4 0 -12
-6 -16 -14 -6 -9 -9 -9 -9 -1 0 6 5 15 11 18 6 5 4 12 -8 22 -15 12 -15 14 -1
10 19 -6 19 13 0 36 -10 12 -10 17 -1 23 8 4 9 3 5 -4 -5 -8 -1 -10 9 -5 13 4
14 8 4 14 -7 4 -14 17 -16 29 -2 12 1 19 7 15 17 -11 11 7 -7 22 -12 8 -13 12
-4 11 7 -2 16 3 19 11 3 10 0 12 -14 8 -18 -7 -18 -6 0 8 11 8 15 15 9 15 -16
0 -24 28 -11 36 7 4 8 3 4 -4 -5 -8 -1 -10 9 -5 13 4 14 8 4 14 -7 4 -14 17
-16 29 -2 12 1 19 7 15 17 -11 11 7 -7 22 -12 8 -13 12 -4 11 7 -2 16 3 19 11
3 10 0 12 -14 8 -18 -7 -18 -6 0 8 11 8 15 15 9 15 -16 0 -24 28 -11 36 7 4 8
3 4 -4 -5 -8 -1 -10 9 -5 13 4 14 8 4 14 -7 4 -14 17 -16 29 -2 12 1 19 7 15
17 -11 11 7 -7 22 -12 8 -13 12 -4 11 7 -2 16 3 19 11 3 10 0 12 -14 8 -18 -7
-18 -6 0 8 11 8 15 15 9 15 -16 0 -24 28 -11 36 7 4 8 3 4 -4 -5 -8 -1 -10 9
-5 13 4 14 8 4 14 -7 4 -14 17 -16 29 -2 12 1 19 7 15 17 -11 11 7 -7 22 -12
8 -13 12 -4 11 7 -2 16 3 19 11 3 10 0 12 -14 8 -17 -6 -18 -6 -2 6 15 12 15
14 0 26 -16 11 -16 12 1 7 9 -3 17 -1 17 4 0 6 -4 10 -9 10 -13 0 -21 39 -9
47 6 3 8 2 5 -3 -3 -6 -1 -16 5 -24 8 -12 9 -12 4 3 -3 10 0 17 7 17 8 0 7 3
-2 9 -12 8 -12 13 2 34 13 21 14 26 3 30 -8 3 -17 3 -20 -1 -4 -3 -15 -6 -26
-7 -16 -1 -17 1 -8 12 9 11 6 13 -15 9 -15 -2 -31 -7 -36 -11 -5 -3 -14 3 -20
12 -6 10 -11 13 -11 6 0 -7 -7 -10 -17 -7 -15 5 -15 4 -3 -4 8 -6 18 -8 24 -5
5 3 6 1 3 -4 -4 -6 -18 -8 -32 -6 -15 3 -22 10 -18 17 4 6 -1 5 -10 -3 -10 -7
-17 -9 -17 -3 0 6 -8 9 -17 8 -10 -2 -21 2 -25 8 -5 7 -8 7 -8 -3 0 -11 -3
-11 -17 0 -16 13 -17 12 -4 -3 7 -10 18 -15 25 -11 6 3 8 2 3 -2 -11 -12 -46
-13 -44 -2 1 6 -9 11 -23 11 -14 1 -32 5 -40 10 -13 8 -13 7 -2 -6 10 -13 10
-17 -3 -21 -8 -4 -14 -1 -12 5 1 6 -8 11 -20 13 -12 1 -20 -2 -17 -7 10 -16
-9 -8 -22 10 -13 16 -14 16 -8 0z m434 -26 c0 -5 -7 -17 -15 -28 -14 -18 -14
-17 -4 9 12 27 19 34 19 19z m-459 -155 c-10 -9 -11 -8 -5 6 3 10 9 15 12 12
3 -3 0 -11 -7 -18z m30 -44 c13 -16 12 -17 -3 -4 -10 7 -18 15 -18 17 0 8 8 3
21 -13z m92 -856 c11 11 55 9 51 -2 -7 -17 -72 -14 -79 3 -4 12 -2 12 8 4 8
-7 17 -9 20 -5z m87 9 c0 -2 -8 -10 -17 -17 -16 -13 -17 -12 -4 4 13 16 21 21
21 13z m40 -11 c8 0 22 4 30 9 12 7 13 7 2 -5 -18 -19 -72 -21 -65 -2 3 8 9
11 12 6 3 -4 13 -8 21 -8z m80 0 c8 0 22 4 30 9 12 7 13 7 2 -5 -18 -19 -72
-21 -65 -2 3 8 9 11 12 6 3 -4 13 -8 21 -8z m80 0 c8 0 22 4 30 9 12 7 13 7 2
-5 -18 -19 -72 -21 -65 -2 3 8 9 11 12 6 3 -4 13 -8 21 -8z m80 0 c8 0 22 4
30 9 12 7 13 7 2 -5 -18 -19 -72 -21 -65 -2 3 8 9 11 12 6 3 -4 13 -8 21 -8z
m-406 -4 c4 -5 -3 -7 -14 -4 -23 6 -26 13 -6 13 8 0 17 -4 20 -9z"/>
<path d="M1975 1549 c-4 -6 -5 -12 -2 -15 2 -3 7 2 10 11 7 17 1 20 -8 4z"/>
<path d="M820 1039 c0 -5 5 -7 10 -4 6 3 10 8 10 11 0 2 -4 4 -10 4 -5 0 -10
-5 -10 -11z"/>
<path d="M1079 732 c9 -7 10 -11 2 -15 -7 -4 -8 -5 0 -3 15 2 13 20 -3 24 -10
3 -10 2 1 -6z"/>
</g>
</svg>
